<svg xmlns="http://www.w3.org/2000/svg" width="1100" height="430" viewBox="0 0 1100 430">
<defs>
  <marker id="arrow" viewBox="0 0 10 10" refX="9" refY="5" markerWidth="7" markerHeight="7" orient="auto-start-reverse"><path d="M0 0L10 5L0 10Z" fill="#36566f"/></marker>
  <style>
    text{font-family:"Noto Sans CJK SC","Microsoft YaHei",sans-serif;fill:#17324d}.title{font-size:18px;font-weight:700}.sub{font-size:13px;fill:#53697d}.label{font-size:13px;font-weight:700}.line{stroke:#36566f;stroke-width:2.4;fill:none;marker-end:url(#arrow)}.dash{stroke:#7b8fa2;stroke-width:2;stroke-dasharray:7 6;fill:none;marker-end:url(#arrow)}
  </style>
</defs>
<rect width="1100" height="430" rx="18" fill="#f7fafc"/>
<text x="36" y="38" class="title">统一 4C8G 分离式压测架构</text>
<text x="36" y="62" class="sub">DataKit 与 OAP 在采集计算节点上按测试模式互斥运行；所有通信走私有 VPC</text>

<path class="line" d="M200 154H268"/><text x="210" y="142" class="sub">HTTP</text>
<path class="line" d="M438 135C475 135 474 105 510 105"/><text x="452" y="104" class="sub">SQL/Redis</text>
<path class="line" d="M438 154H510"/><text x="450" y="144" class="sub">9529</text>
<path class="line" d="M690 154H760"/><text x="700" y="144" class="sub">DataWay</text>
<path class="line" d="M438 175C475 175 474 265 510 265"/><text x="451" y="239" class="sub">11800</text>
<path class="line" d="M690 265H760"/><text x="700" y="255" class="sub">17912</text>
<path class="dash" d="M200 350C310 350 355 225 510 185"/><text x="254" y="337" class="sub">资源与 Agent 健康指标</text>

<g><rect x="30" y="115" width="170" height="78" rx="12" fill="#e8f0fe" stroke="#7699c9"/><text x="115" y="148" text-anchor="middle" class="label">K6 发压</text><text x="115" y="174" text-anchor="middle" class="sub">1 × 4C8G</text></g>
<g><rect x="268" y="115" width="170" height="78" rx="12" fill="#fff4df" stroke="#d8a34d"/><text x="353" y="148" text-anchor="middle" class="label">应用 SUT</text><text x="353" y="174" text-anchor="middle" class="sub">1 × 4C8G / JVM 512MiB</text></g>
<g><rect x="510" y="70" width="180" height="70" rx="12" fill="#f1ecfb" stroke="#8d73bc"/><text x="600" y="100" text-anchor="middle" class="label">MariaDB + Redis</text><text x="600" y="124" text-anchor="middle" class="sub">依赖节点 1 × 4C8G</text></g>
<g><rect x="510" y="150" width="180" height="70" rx="12" fill="#e7f8f3" stroke="#27a684"/><text x="600" y="180" text-anchor="middle" class="label">DataKit 2.12.0</text><text x="600" y="204" text-anchor="middle" class="sub">采集计算 1 × 4C8G</text></g>
<g><rect x="760" y="150" width="180" height="70" rx="12" fill="#e7f8f3" stroke="#27a684"/><text x="850" y="181" text-anchor="middle" class="label">DataWay</text><text x="850" y="205" text-anchor="middle" class="sub">接收确认</text></g>
<g><rect x="510" y="230" width="180" height="70" rx="12" fill="#e9f7fa" stroke="#2f91a5"/><text x="600" y="260" text-anchor="middle" class="label">SkyWalking OAP 10.3.0</text><text x="600" y="284" text-anchor="middle" class="sub">采集计算 1 × 4C8G</text></g>
<g><rect x="760" y="230" width="180" height="70" rx="12" fill="#e9f7fa" stroke="#2f91a5"/><text x="850" y="260" text-anchor="middle" class="label">BanyanDB 0.9.0</text><text x="850" y="284" text-anchor="middle" class="sub">存储节点 1 × 4C8G</text></g>
<g><rect x="30" y="315" width="170" height="70" rx="12" fill="#edf2f7" stroke="#7b8fa2"/><text x="115" y="345" text-anchor="middle" class="label">监控节点</text><text x="115" y="369" text-anchor="middle" class="sub">1 × 4C8G</text></g>

<rect x="970" y="104" width="10" height="10" rx="2" fill="#e7f8f3" stroke="#27a684"/><text x="990" y="114" class="sub">ddtrace 路径</text>
<rect x="970" y="144" width="10" height="10" rx="2" fill="#e9f7fa" stroke="#2f91a5"/><text x="990" y="154" class="sub">SkyWalking 路径</text>
<rect x="970" y="184" width="10" height="10" rx="2" fill="#f1ecfb" stroke="#8d73bc"/><text x="990" y="194" class="sub">业务依赖</text>
</svg>