<svg xmlns="http://www.w3.org/2000/svg" width="900" height="460" viewBox="0 0 900 460">
<style>text{font-family:"Noto Sans CJK SC","Microsoft YaHei",sans-serif;fill:#25334a}.grid{stroke:#dfe6ee;stroke-width:1}.axis{stroke:#637083;stroke-width:1.4}</style>
<rect width="100%" height="100%" fill="#fff" rx="14"/>
<text x="85" y="35" font-size="22" font-weight="700">应用进程 CPU 成本（含发送排空）</text>
<line class="grid" x1="85" y1="395.0" x2="865" y2="395.0"/>
<text x="73" y="399.0" font-size="12" text-anchor="end">0.0</text>
<line class="grid" x1="85" y1="329.0" x2="865" y2="329.0"/>
<text x="73" y="333.0" font-size="12" text-anchor="end">2.7</text>
<line class="grid" x1="85" y1="263.0" x2="865" y2="263.0"/>
<text x="73" y="267.0" font-size="12" text-anchor="end">5.4</text>
<line class="grid" x1="85" y1="197.0" x2="865" y2="197.0"/>
<text x="73" y="201.0" font-size="12" text-anchor="end">8.2</text>
<line class="grid" x1="85" y1="131.0" x2="865" y2="131.0"/>
<text x="73" y="135.0" font-size="12" text-anchor="end">10.9</text>
<line class="grid" x1="85" y1="65.0" x2="865" y2="65.0"/>
<text x="73" y="69.0" font-size="12" text-anchor="end">13.6</text>
<line class="axis" x1="85" y1="65" x2="85" y2="395"/>
<line class="axis" x1="85" y1="395" x2="865" y2="395"/>
<text x="85.0" y="423" font-size="13" text-anchor="middle">100</text>
<text x="475.0" y="423" font-size="13" text-anchor="middle">300</text>
<text x="865.0" y="423" font-size="13" text-anchor="middle">500</text>
<text x="475.0" y="445" font-size="13" text-anchor="middle">目标 RPS</text>
<text x="18" y="230.0" font-size="13" transform="rotate(-90 18 230.0)" text-anchor="middle">CPU 秒 / 千请求</text>
<polyline points="85.0,155.3 475.0,157.5 865.0,204.9" fill="none" stroke="#64748b" stroke-width="3"/>
<circle cx="85.0" cy="155.3" r="5" fill="#64748b"/>
<circle cx="475.0" cy="157.5" r="5" fill="#64748b"/>
<circle cx="865.0" cy="204.9" r="5" fill="#64748b"/>
<line x1="85" y1="52" x2="109" y2="52" stroke="#64748b" stroke-width="4"/>
<text x="115" y="57" font-size="12">无探针</text>
<polyline points="85.0,137.1 475.0,139.1 865.0,203.9" fill="none" stroke="#7357c6" stroke-width="3"/>
<circle cx="85.0" cy="137.1" r="5" fill="#7357c6"/>
<circle cx="475.0" cy="139.1" r="5" fill="#7357c6"/>
<circle cx="865.0" cy="203.9" r="5" fill="#7357c6"/>
<line x1="275" y1="52" x2="299" y2="52" stroke="#7357c6" stroke-width="4"/>
<text x="305" y="57" font-size="12">Datadog ddtrace</text>
<polyline points="85.0,131.8 475.0,133.3 865.0,203.4" fill="none" stroke="#ee762d" stroke-width="3"/>
<circle cx="85.0" cy="131.8" r="5" fill="#ee762d"/>
<circle cx="475.0" cy="133.3" r="5" fill="#ee762d"/>
<circle cx="865.0" cy="203.4" r="5" fill="#ee762d"/>
<line x1="465" y1="52" x2="489" y2="52" stroke="#ee762d" stroke-width="4"/>
<text x="495" y="57" font-size="12">观测云 ddtrace</text>
<polyline points="85.0,127.1 475.0,136.6 865.0,100.4" fill="none" stroke="#0f9d96" stroke-width="3"/>
<circle cx="85.0" cy="127.1" r="5" fill="#0f9d96"/>
<circle cx="475.0" cy="136.6" r="5" fill="#0f9d96"/>
<circle cx="865.0" cy="100.4" r="5" fill="#0f9d96"/>
<line x1="655" y1="52" x2="679" y2="52" stroke="#0f9d96" stroke-width="4"/>
<text x="685" y="57" font-size="12">SkyWalking Java Agent 9.7.0</text>
</svg>